<svg width="97" height="97" viewBox="0 0 97 97" fill="none" xmlns="http://www.w3.org/2000/svg">
<rect x="1.16602" y="1.36877" width="95" height="95" rx="47.5" fill="#2563EB"/>
<rect x="1.16602" y="1.36877" width="95" height="95" rx="47.5" stroke="#2563EB"/>
<path d="M62.666 28.8688H34.666C34.1356 28.8688 33.6269 28.6581 33.2518 28.283C32.8767 27.9079 32.666 27.3992 32.666 26.8688C32.666 26.3383 32.8767 25.8296 33.2518 25.4546C33.6269 25.0795 34.1356 24.8688 34.666 24.8688H62.666C63.1964 24.8688 63.7052 25.0795 64.0802 25.4546C64.4553 25.8296 64.666 26.3383 64.666 26.8688C64.666 27.3992 64.4553 27.9079 64.0802 28.283C63.7052 28.6581 63.1964 28.8688 62.666 28.8688Z" fill="white"/>
<path d="M66.666 34.8688H30.666C30.1356 34.8688 29.6269 34.6581 29.2518 34.283C28.8767 33.9079 28.666 33.3992 28.666 32.8688C28.666 32.3383 28.8767 31.8296 29.2518 31.4546C29.6269 31.0795 30.1356 30.8688 30.666 30.8688H66.666C67.1964 30.8688 67.7052 31.0795 68.0802 31.4546C68.4553 31.8296 68.666 32.3383 68.666 32.8688C68.666 33.3992 68.4553 33.9079 68.0802 34.283C67.7052 34.6581 67.1964 34.8688 66.666 34.8688Z" fill="white"/>
<path d="M69.0573 72.8688H28.2748C26.7877 72.8671 25.3621 72.2757 24.3106 71.2242C23.2591 70.1727 22.6677 68.7471 22.666 67.26V42.4775C22.6677 40.9905 23.2591 39.5649 24.3106 38.5134C25.3621 37.4619 26.7877 36.8704 28.2748 36.8688H69.0573C70.5443 36.8704 71.9699 37.4619 73.0214 38.5134C74.0729 39.5649 74.6644 40.9905 74.666 42.4775V67.26C74.6644 68.7471 74.0729 70.1727 73.0214 71.2242C71.9699 72.2757 70.5443 72.8671 69.0573 72.8688V72.8688Z" fill="white"/>
</svg>
