<svg width="97" height="97" viewBox="0 0 97 97" fill="none" xmlns="http://www.w3.org/2000/svg">
<rect x="0.833008" y="1.36877" width="95" height="95" rx="47.5" fill="#EF4444"/>
<rect x="0.833008" y="1.36877" width="95" height="95" rx="47.5" stroke="#EF4444"/>
<path d="M62.333 28.8688H34.333C33.8026 28.8688 33.2939 28.6581 32.9188 28.283C32.5437 27.9079 32.333 27.3992 32.333 26.8688C32.333 26.3383 32.5437 25.8296 32.9188 25.4546C33.2939 25.0795 33.8026 24.8688 34.333 24.8688H62.333C62.8634 24.8688 63.3722 25.0795 63.7472 25.4546C64.1223 25.8296 64.333 26.3383 64.333 26.8688C64.333 27.3992 64.1223 27.9079 63.7472 28.283C63.3722 28.6581 62.8634 28.8688 62.333 28.8688Z" fill="white"/>
<path d="M66.333 34.8688H30.333C29.8026 34.8688 29.2939 34.6581 28.9188 34.283C28.5437 33.9079 28.333 33.3992 28.333 32.8688C28.333 32.3383 28.5437 31.8296 28.9188 31.4546C29.2939 31.0795 29.8026 30.8688 30.333 30.8688H66.333C66.8634 30.8688 67.3722 31.0795 67.7472 31.4546C68.1223 31.8296 68.333 32.3383 68.333 32.8688C68.333 33.3992 68.1223 33.9079 67.7472 34.283C67.3722 34.6581 66.8634 34.8688 66.333 34.8688Z" fill="white"/>
<path d="M68.7243 72.8688H27.9418C26.4547 72.8671 25.0291 72.2757 23.9776 71.2242C22.9261 70.1727 22.3347 68.7471 22.333 67.26V42.4775C22.3347 40.9905 22.9261 39.5649 23.9776 38.5134C25.0291 37.4619 26.4547 36.8704 27.9418 36.8688H68.7243C70.2113 36.8704 71.6369 37.4619 72.6884 38.5134C73.7399 39.5649 74.3314 40.9905 74.333 42.4775V67.26C74.3314 68.7471 73.7399 70.1727 72.6884 71.2242C71.6369 72.2757 70.2113 72.8671 68.7243 72.8688V72.8688Z" fill="white"/>
</svg>
