<svg width="96" height="97" viewBox="0 0 96 97" fill="none" xmlns="http://www.w3.org/2000/svg">
<rect x="0.5" y="1.36877" width="95" height="95" rx="47.5" fill="#EAB308"/>
<rect x="0.5" y="1.36877" width="95" height="95" rx="47.5" stroke="#EAB308"/>
<path d="M62 28.8688H34C33.4696 28.8688 32.9609 28.6581 32.5858 28.283C32.2107 27.9079 32 27.3992 32 26.8688C32 26.3383 32.2107 25.8296 32.5858 25.4546C32.9609 25.0795 33.4696 24.8688 34 24.8688H62C62.5304 24.8688 63.0391 25.0795 63.4142 25.4546C63.7893 25.8296 64 26.3383 64 26.8688C64 27.3992 63.7893 27.9079 63.4142 28.283C63.0391 28.6581 62.5304 28.8688 62 28.8688Z" fill="white"/>
<path d="M66 34.8688H30C29.4696 34.8688 28.9609 34.6581 28.5858 34.283C28.2107 33.9079 28 33.3992 28 32.8688C28 32.3383 28.2107 31.8296 28.5858 31.4546C28.9609 31.0795 29.4696 30.8688 30 30.8688H66C66.5304 30.8688 67.0391 31.0795 67.4142 31.4546C67.7893 31.8296 68 32.3383 68 32.8688C68 33.3992 67.7893 33.9079 67.4142 34.283C67.0391 34.6581 66.5304 34.8688 66 34.8688Z" fill="white"/>
<path d="M68.3913 72.8688H27.6088C26.1217 72.8671 24.6961 72.2757 23.6446 71.2242C22.5931 70.1727 22.0017 68.7471 22 67.26V42.4775C22.0017 40.9905 22.5931 39.5649 23.6446 38.5134C24.6961 37.4619 26.1217 36.8704 27.6088 36.8688H68.3913C69.8783 36.8704 71.3039 37.4619 72.3554 38.5134C73.4069 39.5649 73.9983 40.9905 74 42.4775V67.26C73.9983 68.7471 73.4069 70.1727 72.3554 71.2242C71.3039 72.2757 69.8783 72.8671 68.3913 72.8688V72.8688Z" fill="white"/>
</svg>
